Patient4_TMGait_0pt4_03_left_40_EMG.mot
version=1
nRows=40
nColumns=33
inDegrees=no
endheader
time	1LAddLong	2LGlutMax	3LGlutMed	4LIliopsoas	5LSemiMemb	6LBicFemLong	7LRecFem	8LVastMed	9LVastLat	10LGasMed	11LTibAnt	12lTibPost	13LPeroneusLong	14LSol	15LExtDigLong	16LFlexDigLong	17RAddLong	18RGlutMax	19RGlutMed	20RIliopsoas	21RSemiMemb	22RBicFemLong	23RRecFem	24RVastMed	25RVastLat	26RGasMed	27RTibAnt	28RTibPost	29RPeroneusLong	30RSol	31RExtDigLong	32RFlexDigLong
53.437	0.034027	-0.077057	-0.13489	0.000305	-0.00351	-0.093079	0.003662	0.024567	-0.13245	-0.20569	0.00885	-0.052338	0.011749	-0.011597	-0.016174	-0.027008	0.14252	0.65262	0.40192	0.22476	-0.003815	0.057526	0.4332	-0.037079	-0.00351	0.016785	0.17654	-0.00824	-0.054779	-0.15915	-0.001678	-0.006409
53.438	0.034027	-0.12711	-0.12238	0.005188	0.057526	-0.002289	-0.038605	0.030365	-0.15106	-0.26611	0.010681	0.017548	0.004578	0.44006	-0.012817	-0.035553	0.093842	0.7132	0.1268	0.37308	-0.001221	0.25101	0.3952	-0.08667	-0.016327	0.018463	0.38879	-0.008087	0.024261	-0.093384	-0.002289	-0.00885
53.439	0.031281	-0.088654	-0.087738	0.002747	0.009613	0.052948	-0.13962	0.027924	-0.17761	-0.23895	0.00473	0.020752	0.01709	0.2861	-0.008392	-0.036316	0.026855	0.74448	-0.077362	0.35721	0.036011	0.24811	0.4129	-0.11429	-0.025024	0.010986	0.28748	-0.006561	0.027771	0.02121	-0.003967	-0.010376
53.44	0.031738	-0.040741	0.012512	0.009613	-0.035553	0.065613	-0.18143	0.005341	-0.11643	-0.1564	-0.001678	0.23895	0.15182	-0.082855	-0.00946	-0.032196	-0.004272	0.81253	-0.31799	0.26764	0.008392	0.1294	0.41382	-0.14511	-0.044403	0.006104	-0.15915	-0.008545	0.089569	0.12436	-0.003357	-0.006561
53.441	0.028381	-0.025787	0.21088	0.016632	-0.050507	0.054474	-0.22903	-0.029449	-0.044556	-0.084686	-0.013733	0.15915	0.20355	0.05188	0.014801	-0.015106	-0.019684	0.86517	-0.078583	0.14801	0.005035	0.093079	0.43182	-0.1207	-0.06073	0.011292	-0.65796	-0.007629	0.18997	0.087128	-0.00412	-0.006714
53.442	0.024567	-0.062714	0.19058	0.00351	-0.05722	0.021362	-0.25467	-0.032959	-0.022583	0.049896	-0.017395	-0.32608	0.023499	-0.16922	0.014801	0.023804	-0.030975	0.92804	0.097351	0.023499	0.031128	0.0354	0.42893	-0.046082	-0.052795	0.002441	-1.0149	-0.003204	0.12848	0.11993	-0.004272	-0.000458
53.443	0.020447	-0.10346	0.11444	0.036163	-0.051727	0.030823	-0.2623	-0.021515	-0.029602	0.047913	-0.012665	0.007019	-0.080566	-0.048065	-0.011292	-0.038605	-0.022278	0.93582	0.11704	0.061188	0.027924	-0.002899	0.42191	-0.036469	-0.059814	-0.000305	-0.71686	-0.010376	0.052338	0.19562	-0.001373	-0.005646
53.444	-0.000916	-0.093842	0.020294	0.010986	-0.07431	0.00824	-0.32516	0.002289	-0.031281	-0.011139	-0.002594	0.009613	-0.14481	-0.22659	0	-0.081482	0.018158	0.95215	0.12039	0.06012	0.017853	-0.051422	0.43594	0.028839	-0.057983	-0.004883	-0.004578	-0.006256	-0.004425	0.1355	0.000458	-0.007324
53.445	0.018005	0.039825	0.016785	0.024109	-0.072784	-0.016174	-0.4364	0.007629	-0.031891	0.11383	0.003967	0.006714	-0.15869	-0.14572	-0.009003	-0.046997	0.042725	1.01	0.016632	0.006256	0.01297	-0.072937	0.43701	0.040436	-0.049896	-0.001221	0.27893	-0.00351	-0.040894	0.074463	0.002441	-0.010376
53.446	0.024414	0.057983	-0.024872	0.00885	-0.084381	0.013275	-0.56412	0.013885	-0.027466	0.12421	0.00473	-0.009918	-0.10117	0.36072	-0.005341	-0.029602	0.040131	0.97641	-0.24033	-0.079956	0.007629	-0.088196	0.47165	0.036774	-0.052948	0.002594	0.26245	-0.004578	-0.058289	0.033722	-0.001678	-0.001526
53.447	0.019226	0.098114	-0.042267	-0.02655	-0.075073	0.053406	-0.63049	0.015717	0.000916	0.097656	0.002747	-0.03891	-0.061188	0.79483	0.005341	-0.024567	0.028687	1.0068	-0.1387	-0.18021	0.02655	-0.081787	0.46356	0.031433	-0.038757	0.00473	0.33585	-0.001221	-0.038757	-0.018311	-0.003052	-0.002747
53.448	0.026855	0.11047	-0.009918	-0.014343	-0.038147	-0.06134	-0.5809	0.00351	0.025024	0.11154	0.000763	-0.033264	0.036926	0.22125	-0.028992	0.016632	-0.014648	0.89768	0.041046	-0.18433	0.019379	-0.069275	0.44876	0.045471	-0.053101	-0.00061	-0.019226	-0.002594	-0.024872	-0.027924	-0.003052	-0.010071
53.449	0.021057	0.10971	-0.018311	0.020905	0.001068	-0.18692	-0.56244	-0.007324	0.13443	0.10132	-0.001831	-0.006104	0.073853	-0.59296	-0.059052	0.006561	-0.042725	0.85022	-0.10117	-0.12497	-0.010223	-0.054169	0.42984	0.042877	-0.063324	-0.005341	0.12985	-0.004425	-0.12253	-0.003204	-0.001526	-0.007019
53.45	0.014343	0.095367	-0.053253	0.005951	-0.003357	-0.18036	-0.60181	0.005035	0.1091	0.069427	0.003052	-0.016785	0.043945	-0.55603	-0.035553	0.000916	-0.087128	0.80597	0.074768	-0.057373	-0.031433	-0.050354	0.44647	-0.027618	-0.06897	-0.004425	0.054016	-0.001068	-0.1062	-0.044708	-0.002747	-0.010376
53.451	0.017853	0.067139	-0.11734	-0.011749	-0.046997	-0.12756	-0.82947	0.014648	0.064392	0.069122	-0.000458	-0.024872	0.033569	-0.20142	0.002289	0.010529	-0.098724	0.69717	-0.15182	0.017853	-0.055847	-0.016022	0.45487	-0.067444	-0.058899	0.00351	-0.22858	-0.000763	-0.04837	-0.019531	-0.001984	-0.009003
53.452	0.00824	0.028381	-0.13748	0.006714	-0.067444	-0.06073	-0.80826	0.01358	0.059204	0.048218	0.002441	-0.022888	-0.001984	0.13611	0.015869	-0.000153	-0.10239	0.61935	-0.242	-0.008545	-0.071716	-0.010223	0.46997	-0.087433	-0.073242	0.000916	-0.24994	-0.000916	-0.082855	-0.085602	-0.00061	-0.013885
53.453	0.0177	0.047302	-0.063171	0.007324	-0.046692	-0.034332	-0.78232	0.016022	0.030365	0.036469	0.003052	-0.015564	-0.008545	0.25742	0.017395	-0.014954	-0.09201	0.61295	-0.09552	-0.029602	-0.063171	-0.03418	0.39703	-0.08194	-0.09903	0.001984	-0.66315	-0.001984	0.099792	-0.1857	-0.004272	-0.011292
53.454	0.011749	0.017395	0.015259	0.011902	0.014038	0.11566	-0.67642	0.020599	0.058289	0.045776	0.001068	-0.015106	0.019684	0.23377	0.026093	-0.029907	-0.075989	0.53818	0.11902	-0.028229	-0.05127	-0.10178	0.40405	-0.077057	-0.074921	0.016022	-0.61768	-0.000916	0.35904	-0.24689	-0.004883	-0.007935
53.455	0.005188	-0.009613	0.062714	0.000458	0.011902	0.17944	-0.63217	0.035858	0.09079	0.032806	-0.004272	-0.018311	0.057526	0.1535	0.003052	-0.043182	-0.019531	0.45715	0.064087	0.045624	-0.056915	-0.14206	0.42267	-0.12619	-0.09613	0.00885	-0.2063	0.001068	0.22614	-0.19348	-0.003967	-0.008545
53.456	0.010071	0.030212	0.005798	0.004272	-0.019684	0.19333	-0.65018	0.036011	0.11673	0.029755	-0.00473	-0.004425	0.062866	0.11887	-0.018463	-0.007629	0.028076	0.37308	0.049591	0.11261	-0.075378	-0.1236	0.3714	-0.1622	-0.074005	0.00351	0.026245	-0.006561	-0.062561	-0.074158	-0.003662	-0.012817
53.457	0.009613	0.12177	0.00412	-0.000916	-0.032959	0.19211	-0.62958	0.014648	0.1091	0.029449	0.007477	0.022583	0.057678	0.099182	-0.002289	-0.005798	0.071716	0.2449	0.072327	0.14786	-0.097504	-0.14694	0.36606	-0.11673	-0.072632	0.003815	0.11826	-0.002747	-0.090637	0.023651	-0.004425	-0.016174
53.458	0.021362	0.15503	0.040894	0.004272	-0.024719	0.1387	-0.54153	0.009003	0.034485	-0.00824	0.00885	-0.007935	0.042267	0.029144	0.007782	-0.024872	0.070953	0.18112	0.06424	0.14053	-0.12497	-0.11887	0.37354	-0.1561	-0.083466	-0.001068	-0.1712	-0.002136	-0.070953	0.042725	-0.001831	-0.006561
53.459	0.018158	0.18127	0.22263	0.0354	-0.02533	0.098419	-0.54001	0.00946	0.046539	-0.083313	0.000763	-0.029907	0.041351	0.092468	0.001526	-0.007782	0.075684	0.10712	0.00946	0.16068	-0.13367	-0.10956	0.35919	-0.13687	-0.070801	-0.005646	-0.26886	-0.008392	-0.11307	0.042267	-0.000763	-0.016174
53.46	0.016785	0.24536	0.30533	0.009155	-0.037842	0.06485	-0.52658	-0.00946	0.069885	-0.091858	-0.028076	-0.024567	0.025482	0.10956	0.006866	0.018616	0.057526	0.075684	-0.14603	0.11002	-0.1268	-0.065155	0.37628	-0.14648	-0.059052	-0.009766	-0.24185	-0.000458	-0.2124	-0.031281	-0.003967	-0.0177
53.461	0.009918	0.29404	0.27817	0.00473	-0.066528	0.076599	-0.5159	-0.021362	0.13016	-0.037231	-0.00885	-0.029449	-0.00473	0.054169	0.024719	-0.010986	0.017548	0.000763	0.01236	-0.013123	-0.096893	-0.010071	0.33356	-0.078278	-0.039978	-0.005493	-0.17822	-0.00473	-0.15488	-0.1001	-0.001526	-0.019836
53.462	-0.003662	0.35339	0.24246	0.012207	-0.055084	0.061951	-0.4747	-0.026855	0.12039	0.13229	0.002747	-0.022125	-0.030212	-0.026855	0.059509	-0.033417	-0.016632	-0.065918	0.086517	-0.13412	-0.097656	0.068359	0.34286	-0.04715	-0.006409	0.007019	0.27176	0.001831	-0.043793	-0.10223	-0.001831	-0.00351
53.463	0.007477	0.40649	0.051575	0.036621	-0.046844	0.027618	-0.50415	-0.018463	0.083008	0.14084	0.022125	-0.024719	-0.016937	-0.056152	0.011139	-0.020752	-0.057068	-0.15442	0.1619	-0.19226	-0.088501	0.12817	0.33875	-0.010834	-0.026245	0.016937	0.48737	-0.001068	0.014648	-0.08667	-0.006409	0.003815
53.464	0.014648	0.42282	0.063171	0.006866	0.016327	0.024261	-0.5098	-0.023499	0.14313	0.021362	0.048828	-0.01358	0.051727	-0.017395	-0.026398	-0.013885	-0.072784	-0.23086	0.074921	-0.15213	-0.044403	0.066071	0.34683	0.02594	0.000305	0.004883	0.84961	-0.001831	-0.11368	-0.13138	-0.003357	-0.009613
53.465	0.017548	0.33386	0.13077	-0.00061	-0.016785	0.054016	-0.44327	-0.001984	0.14572	-0.032806	0.006561	-0.021057	0.23071	-0.13534	-0.054169	-0.01236	-0.04303	-0.33264	-0.12207	-0.090485	-0.005188	-0.015869	0.42328	0.095062	-0.00061	-0.002289	0.43503	-0.00412	-0.093384	-0.032501	-0.002136	-0.012817
53.466	0.019379	0.13351	0.12695	0.002136	-0.061035	0.13092	-0.32623	0.003967	0.075531	-0.019836	0.002441	-0.008087	0.31494	-0.048218	0.006409	-0.022278	-0.014648	-0.33279	-0.09613	-0.071411	0.045624	-0.000916	0.37033	0.057526	-0.004425	0.001526	-0.30746	-0.005493	0.065918	0.046082	-0.003204	-0.008392
53.467	-0.004425	0.048981	0.065918	0.021667	-0.089722	0.24826	-0.26154	0.019836	0.007782	0.009613	-0.11429	-0.005341	0.28992	-0.005646	-0.009155	-0.02121	0.016937	-0.37354	-0.071259	-0.097351	0.032806	0.010376	0.36575	0.041656	-0.013733	0.00412	-0.47867	-0.006256	0.011902	0.017548	-0.000305	-0.011292
53.468	0.012512	0.067139	0.092926	0.006866	-0.048523	0.40832	-0.2803	0.008087	-0.010529	0.003815	-0.11368	-0.015717	0.035706	-0.04303	0.13458	-0.018005	0.043182	-0.37323	0.060883	-0.0737	-0.006561	-0.003204	0.34439	0.014038	-0.034332	0	-0.2771	-0.002747	-0.008698	0.1265	-0.00412	-0.016022
53.469	-0.050354	-0.095978	-0.062714	0.012207	0.068359	0.38025	-0.31296	-0.00351	0.12238	-0.019989	-0.046082	-0.019684	-0.15579	-0.032959	0.32623	-0.008392	0.014038	-0.48386	-0.13626	0.019379	-0.030212	-0.028839	0.3891	-0.03418	-0.053711	0.004578	0.17471	-0.004425	-0.036316	0.13992	-0.001221	-0.015717
53.47	-0.01358	-0.23407	-0.21057	-0.010376	0.037689	0.38467	-0.28458	0.011597	0.25955	-0.044098	-0.012665	-0.005188	-0.041809	0.018158	0.073853	-0.002594	0.010529	-0.53925	-0.22003	0.095673	-0.046997	0.089417	0.37247	-0.087128	-0.064392	-0.00412	-0.16937	-0.007629	-0.040283	0.10666	-0.001984	-0.011444
53.471	0.006409	-0.31448	-0.17197	0.004578	-0.005798	0.33402	-0.28641	0.026398	0.30518	-0.040588	0.037994	-0.020447	0.11215	0.070038	-0.070038	-0.008087	-0.001984	-0.53955	-0.0914	0.24078	-0.060577	0.084686	0.38193	-0.035706	-0.061035	-0.006866	-0.36331	-0.002289	-0.028839	0.09552	-0.006561	-0.00824
53.472	0.007477	-0.24109	-0.031128	-0.006866	-0.060883	0.27725	-0.28763	0.002136	0.3775	-0.015564	0.066376	-0.025635	0.015869	0.04303	-0.069733	-0.009155	-0.027771	-0.48752	0.23987	0.37521	-0.0737	0.010223	0.41382	-0.051727	-0.087738	-0.004272	-0.27405	-0.00351	-0.036621	0.11581	-0.001221	-0.01236
53.473	0.016632	-0.26199	-0.13748	0.000305	0.000916	-0.17212	-0.23392	-0.009613	0.25024	-0.063782	0.10941	-0.010681	0.12192	-0.022125	-0.13886	0.00351	-0.033875	-0.47684	-0.006104	0.40527	-0.071259	0.027008	0.41931	-0.058289	-0.076447	-0.005951	-0.24185	-0.000305	0.028534	0.019684	-0.001526	-0.011902
53.474	0.015106	-0.30899	-0.18478	0.011902	0.019836	-0.26657	-0.12253	-0.048676	-0.061035	-0.075531	0.096893	-0.004883	-0.077667	-0.10483	-0.27756	-0.006866	-0.014038	-0.51956	-0.17288	0.22446	-0.044556	0.015869	0.34607	-0.077667	-0.040131	0.000305	-0.19211	-0.004578	0.016327	-0.003204	0.002289	-0.016479
53.475	0.005646	-0.23605	-0.19226	0.007782	0.024109	-0.51239	-0.045471	-0.037079	-0.3479	-0.066681	0.085907	-0.013428	-0.18875	-0.051727	-0.17059	-0.013123	0.028992	-0.46738	0.29236	0.029602	-0.031281	0.031128	0.30411	-0.063171	-0.030975	0.002747	0.1561	0.001068	-0.001984	-0.054626	-0.002289	-0.017395
53.476	0.00885	-0.11887	-0.13626	0.007477	0.007935	-0.48859	-0.028076	-0.021362	-0.401	-0.074615	0.018311	-0.016174	-0.18784	-0.060272	-0.046082	-0.005341	0.044708	-0.44296	0.4866	-0.031433	-0.028381	-0.008087	0.28351	-0.005341	-0.012207	-0.00061	0.48737	-0.005951	0.011902	-0.091553	-0.002289	-0.014191
